<svg width="565" height="565" viewBox="0 0 565 565" fill="none" xmlns="http://www.w3.org/2000/svg">
<g clip-path="url(#clip0)">
<path d="M356.124 29.1723C344.645 29.1723 335.272 37.4775 335.272 47.6491C335.272 37.4775 325.899 29.1723 314.42 29.1723C325.899 29.1723 335.272 20.867 335.272 10.6954C335.272 20.9603 344.645 29.1723 356.124 29.1723Z" fill="#DE3C4B" stroke="black" stroke-width="2" stroke-miterlimit="10" stroke-linecap="round" stroke-linejoin="round"/>
<path d="M139.704 95.614C128.225 95.614 118.852 103.919 118.852 114.091C118.852 103.919 109.479 95.614 97.9999 95.614C109.479 95.614 118.852 87.3088 118.852 77.1372C118.852 87.3088 128.225 95.614 139.704 95.614Z" fill="#DE3C4B" stroke="black" stroke-width="2" stroke-miterlimit="10" stroke-linecap="round" stroke-linejoin="round"/>
<path d="M160.556 21.1466C149.077 21.1466 139.704 29.4519 139.704 39.6234C139.704 29.4519 130.331 21.1466 118.852 21.1466C130.331 21.1466 139.704 12.8414 139.704 2.6698C139.704 12.8414 149.077 21.1466 160.556 21.1466Z" fill="#3F88C5" stroke="black" stroke-width="2" stroke-miterlimit="10" stroke-linecap="round" stroke-linejoin="round"/>
<path d="M104.529 274.223C103.055 303.712 118.852 333.48 145.707 351.397V511.809H251.231V295.966L116.956 259.013L104.529 274.223Z" fill="#140F2D" stroke="black" stroke-width="2" stroke-miterlimit="10" stroke-linecap="round" stroke-linejoin="round"/>
<path d="M270.293 59.0339L264.712 57.1676C262.605 56.421 261.447 54.3681 262.289 52.4084L262.605 51.6619C263.448 49.7955 265.87 48.8623 267.976 49.5156L273.558 51.3819C275.664 52.1285 276.823 54.1814 275.98 56.1411L275.664 56.8876C274.822 58.754 272.399 59.6871 270.293 59.0339Z" fill="#FBF5F3" stroke="black" stroke-width="2" stroke-miterlimit="10" stroke-linecap="round" stroke-linejoin="round"/>
<path d="M249.125 75.3644L232.275 69.6721C227.115 67.899 224.482 62.8599 226.483 58.2874L238.804 30.1056C240.805 25.533 246.598 23.2934 251.758 25.0664L268.608 30.7588C273.769 32.5318 276.401 37.5709 274.4 42.1435L262.079 70.3253C260.078 74.8045 254.286 77.1375 249.125 75.3644Z" fill="#FBF5F3" stroke="black" stroke-width="2" stroke-miterlimit="10" stroke-linecap="round" stroke-linejoin="round"/>
<path d="M264.192 50.2402C264.604 49.3316 264.238 48.3459 263.374 48.0387C262.511 47.7315 261.477 48.2191 261.065 49.1278C260.653 50.0365 261.02 51.0221 261.883 51.3293C262.747 51.6365 263.78 51.1489 264.192 50.2402Z" fill="black" stroke="black" stroke-width="2" stroke-miterlimit="10.0002" stroke-linecap="round" stroke-linejoin="round"/>
<path d="M258.604 58.6604L263.763 64.726" stroke="black" stroke-width="2" stroke-miterlimit="10" stroke-linecap="round" stroke-linejoin="round"/>
<path d="M272.4 17.2275C268.819 16.3877 265.238 17.0409 262.395 18.7206C261.868 18.4406 261.236 18.254 260.499 18.0674C259.551 17.8807 258.603 17.7874 257.656 17.8807C258.498 13.8681 257.445 9.5755 254.391 6.02944C248.599 -0.689403 237.646 -1.99584 230.063 3.13661C226.061 5.84281 223.745 9.66882 223.323 13.7748C217.636 12.9349 211.528 14.148 206.578 17.4141C196.995 23.853 195.099 35.7976 202.366 44.1962C204.051 46.1559 206.052 47.6489 208.264 48.8621C207.316 53.9945 210.791 59.0337 216.583 60.6201C215.53 64.2594 217.952 67.9921 222.165 69.0186C225.956 69.8585 229.853 68.1787 231.327 65.006C231.538 65.0993 231.854 65.1926 232.064 65.1926C238.489 66.6857 245.018 63.3262 246.703 57.7272C247.335 55.4876 247.124 53.248 246.282 51.195C247.756 51.0084 249.125 50.4485 250.389 49.7019C254.391 46.9957 255.128 42.0499 252.179 38.5039L252.074 38.4105C252.074 38.4105 252.074 38.4105 252.074 38.3172C252.285 38.2239 252.495 38.1306 252.706 38.0373C253.232 39.3437 254.496 40.3702 256.181 40.7435C258.919 41.3967 261.658 39.9036 262.395 37.5707C262.395 37.3841 262.5 37.1974 262.5 37.0108C263.553 37.5707 264.712 38.0373 266.081 38.3172C272.716 39.8103 279.561 36.3576 281.351 30.4786C283.036 24.7862 279.034 18.8139 272.4 17.2275Z" fill="black"/>
<path d="M251.547 49.9819C250.915 48.1155 249.336 46.4358 247.019 45.6893C243.122 44.3828 238.804 46.0625 237.33 49.5153C235.856 52.8747 237.751 56.7007 241.648 58.0071C244.175 58.847 246.914 58.3804 248.914 57.074" fill="#FBF5F3"/>
<path d="M251.547 49.9819C250.915 48.1155 249.336 46.4358 247.019 45.6893C243.122 44.3828 238.804 46.0625 237.33 49.5153C235.856 52.8747 237.751 56.7007 241.648 58.0071C244.175 58.847 246.914 58.3804 248.914 57.074" stroke="black" stroke-width="2" stroke-miterlimit="10" stroke-linecap="round" stroke-linejoin="round"/>
<path d="M228.589 68.2719C223.744 68.1785 219.005 69.2984 214.898 71.6313C192.887 84.4158 175.826 102.893 161.714 122.303C128.541 167.748 108.952 220.379 105.266 273.85L251.231 311.457V88.7084C251.231 77.6969 241.226 68.6451 228.589 68.2719Z" fill="#3F88C5" stroke="black" stroke-width="2" stroke-miterlimit="10" stroke-linecap="round" stroke-linejoin="round"/>
<path d="M232.486 251.92C232.486 266.198 219.321 277.769 202.998 277.769C186.674 277.769 173.51 266.198 173.51 251.92V220.566H232.486V251.92Z" stroke="black" stroke-width="2" stroke-miterlimit="10" stroke-linecap="round" stroke-linejoin="round"/>
<path d="M197.627 142.179V218.233V231.671C197.627 246.788 211.528 259.013 228.8 259.013H335.272V218.233H270.609C259.867 218.233 251.231 210.581 251.231 201.249V105.039" fill="#3F88C5"/>
<path d="M197.627 142.179V218.233V231.671C197.627 246.788 211.528 259.013 228.8 259.013H335.272V218.233H270.609C259.867 218.233 251.231 210.581 251.231 201.249V105.039" stroke="black" stroke-width="2" stroke-miterlimit="10" stroke-linecap="round" stroke-linejoin="round"/>
<path d="M282.088 536.818C279.35 533.739 274.822 532.246 270.399 531.686C265.975 531.126 261.447 531.219 257.024 530.379C246.598 528.42 237.751 521.048 234.908 511.996L182.356 511.809C181.303 511.716 183.409 511.809 182.356 511.809C169.297 511.809 158.661 520.861 158.661 531.966C158.661 542.511 168.139 551.936 180.25 552.869H276.085C279.771 552.029 282.826 549.416 283.984 546.243C285.142 543.07 284.405 539.431 282.088 536.818Z" fill="#FBF5F3" stroke="black" stroke-width="2" stroke-miterlimit="10" stroke-linecap="round" stroke-linejoin="round"/>
<path d="M278.192 565H157.081C153.605 565 150.762 562.48 150.762 559.401C150.762 556.322 153.605 553.802 157.081 553.802H278.192C281.667 553.802 284.51 556.322 284.51 559.401C284.51 562.48 281.667 565 278.192 565Z" fill="black" stroke="black" stroke-width="2" stroke-miterlimit="10" stroke-linecap="round" stroke-linejoin="round"/>
<path d="M271.768 526.833C269.135 524.78 265.133 524.874 262.711 527.113L230.695 559.401H248.072L272.189 534.765C274.506 532.432 274.4 528.886 271.768 526.833Z" fill="black" stroke="black" stroke-width="2" stroke-miterlimit="10" stroke-linecap="round" stroke-linejoin="round"/>
<path d="M214.266 559.401L249.862 525.34C252.285 523.101 252.074 519.555 249.546 517.408C246.914 515.355 242.912 515.449 240.489 517.688L196.995 559.308L214.266 559.401Z" fill="black" stroke="black" stroke-width="2" stroke-miterlimit="10" stroke-linecap="round" stroke-linejoin="round"/>
<path d="M194.678 519.741C195.942 526.18 194.151 533.085 189.728 538.311" stroke="black" stroke-width="2" stroke-miterlimit="10" stroke-linecap="round" stroke-linejoin="round"/>
<path d="M218.268 345.238C211.318 380.885 186.042 411.307 161.609 440.328" stroke="black" stroke-width="2" stroke-miterlimit="10" stroke-linecap="round" stroke-linejoin="round"/>
<path d="M215.109 408.227C209.843 419.425 202.787 429.97 194.151 439.395" stroke="black" stroke-width="2" stroke-miterlimit="10" stroke-linecap="round" stroke-linejoin="round"/>
<path d="M171.404 157.297C162.663 170.081 152.552 182.119 141.179 193.131" stroke="black" stroke-width="2" stroke-miterlimit="10" stroke-linecap="round" stroke-linejoin="round"/>
<path d="M178.986 181.186C172.035 189.491 164.558 197.423 156.554 204.982" stroke="black" stroke-width="2" stroke-miterlimit="10" stroke-linecap="round" stroke-linejoin="round"/>
<path d="M229.642 113.251C225.219 118.104 220.796 122.863 216.372 127.715" stroke="black" stroke-width="2" stroke-miterlimit="10" stroke-linecap="round" stroke-linejoin="round"/>
<path d="M292.515 285.328H279.877V564.907H292.515V285.328Z" fill="white" stroke="black" stroke-width="2" stroke-miterlimit="10" stroke-linecap="round" stroke-linejoin="round"/>
<path d="M464.071 285.328H451.433V564.907H464.071V285.328Z" fill="white" stroke="black" stroke-width="2" stroke-miterlimit="10" stroke-linecap="round" stroke-linejoin="round"/>
<path d="M463.965 83.7628H325.688L279.877 285.328H463.965V83.7628Z" fill="#D72638" stroke="black" stroke-width="2" stroke-miterlimit="10" stroke-linecap="round" stroke-linejoin="round"/>
<path d="M383.19 120.903L395.406 154.124H434.899L402.989 174.654L415.1 207.875L383.19 187.345L351.28 207.875L363.496 174.654L331.586 154.124H370.973L383.19 120.903Z" fill="white" stroke="black" stroke-width="2" stroke-miterlimit="10" stroke-linecap="round" stroke-linejoin="round"/>
</g>
<defs>
<clipPath id="clip0">
<rect width="565" height="565" fill="white"/>
</clipPath>
</defs>
</svg>
